<?xml version="1.0" encoding="UTF-8" standalone="no"?>
<svg
   xmlns:dc="http://purl.org/dc/elements/1.1/"
   xmlns:cc="http://creativecommons.org/ns#"
   xmlns:rdf="http://www.w3.org/1999/02/22-rdf-syntax-ns#"
   xmlns:svg="http://www.w3.org/2000/svg"
   xmlns="http://www.w3.org/2000/svg"
   viewBox="0 0 666.66669 666.66669"
   height="666.66669"
   width="666.66669"
   xml:space="preserve"
   id="svg2"
   version="1.1"><metadata
     id="metadata8"><rdf:RDF><cc:Work
         rdf:about=""><dc:format>image/svg+xml</dc:format><dc:type
           rdf:resource="http://purl.org/dc/dcmitype/StillImage" /></cc:Work></rdf:RDF></metadata><defs
     id="defs6"><radialGradient
       id="radialGradient22"
       spreadMethod="pad"
       gradientTransform="matrix(4020.2,0,0,-4020.2,2500,2500)"
       gradientUnits="userSpaceOnUse"
       r="1"
       cy="0"
       cx="0"
       fy="0"
       fx="0"><stop
         id="stop14"
         offset="0"
         style="stop-opacity:1;stop-color:#4a1848" /><stop
         id="stop16"
         offset="0.0572111"
         style="stop-opacity:1;stop-color:#4a1848" /><stop
         id="stop18"
         offset="0.623868"
         style="stop-opacity:1;stop-color:#20162a" /><stop
         id="stop20"
         offset="1"
         style="stop-opacity:1;stop-color:#20162a" /></radialGradient><clipPath
       id="clipPath32"
       clipPathUnits="userSpaceOnUse"><path
         id="path30"
         d="m 2186.96,2562.16 c 60.32,-60.33 158.13,-60.33 218.46,0 v 0 c 60.32,60.3 60.32,158.12 0,218.43 l -467.76,467.77 c -60.33,60.32 -158.14,60.33 -218.46,0 v 0 c -60.32,-60.31 -60.31,-158.14 0.01,-218.46 l 276.69,-276.01 z" /></clipPath><radialGradient
       id="radialGradient40"
       spreadMethod="pad"
       gradientTransform="matrix(858.697,0,0,-858.697,1702.49,3177.85)"
       gradientUnits="userSpaceOnUse"
       r="1"
       cy="0"
       cx="0"
       fy="0"
       fx="0"><stop
         id="stop34"
         offset="0"
         style="stop-opacity:1;stop-color:#3771be" /><stop
         id="stop36"
         offset="0.166667"
         style="stop-opacity:1;stop-color:#3771be" /><stop
         id="stop38"
         offset="1"
         style="stop-opacity:1;stop-color:#5fc8a5" /></radialGradient><clipPath
       id="clipPath50"
       clipPathUnits="userSpaceOnUse"><path
         id="path48"
         d="m 2405.42,3716.4 c -60.33,60.33 -158.14,60.31 -218.46,0 L 1719.2,3248.63 c -59.07,-59.05 -62.76,-151.49 -6.16,-212.05 l 2.39,-2.55 3.11,-3.11 c 0.23,-0.23 0.43,-0.49 0.66,-0.72 0.25,-0.26 0.53,-0.46 0.78,-0.72 l 275.92,-275.59 c -148.57,148.57 50.9,385.43 50.9,385.43 l -0.04,-0.01 358.66,358.63 c 60.3,60.33 60.32,158.14 0,218.46 z" /></clipPath><linearGradient
       id="linearGradient58"
       spreadMethod="pad"
       gradientTransform="matrix(1086.74,0,0,-1086.74,1832.86,3257.76)"
       gradientUnits="userSpaceOnUse"
       y2="0"
       x2="1"
       y1="0"
       x1="0"><stop
         id="stop52"
         offset="0"
         style="stop-opacity:1;stop-color:#5fc8a5" /><stop
         id="stop54"
         offset="0.833333"
         style="stop-opacity:1;stop-color:#3771be" /><stop
         id="stop56"
         offset="1"
         style="stop-opacity:1;stop-color:#3771be" /></linearGradient><clipPath
       id="clipPath68"
       clipPathUnits="userSpaceOnUse"><path
         id="path66"
         d="m 2785.08,3139.99 c -60.34,60.32 -158.14,60.32 -218.47,0 v 0 c -60.31,-60.32 -60.31,-158.13 0,-218.45 l 467.77,-467.77 c 60.33,-60.32 158.14,-60.33 218.44,0 v 0 c 60.34,60.32 60.32,158.13 0,218.47 l -276.7,276.01 z" /></clipPath><linearGradient
       id="linearGradient76"
       spreadMethod="pad"
       gradientTransform="matrix(-776.699,0,0,776.699,3298.08,2796.87)"
       gradientUnits="userSpaceOnUse"
       y2="0"
       x2="1"
       y1="0"
       x1="0"><stop
         id="stop70"
         offset="0"
         style="stop-opacity:1;stop-color:#a21554" /><stop
         id="stop72"
         offset="0.00955605"
         style="stop-opacity:1;stop-color:#a21554" /><stop
         id="stop74"
         offset="1"
         style="stop-opacity:1;stop-color:#f28114" /></linearGradient><clipPath
       id="clipPath86"
       clipPathUnits="userSpaceOnUse"><path
         id="path84"
         d="m 2566.61,1985.74 c 60.33,-60.32 158.13,-60.31 218.47,0 l 467.74,467.76 c 59.07,59.06 62.78,151.5 6.17,212.05 l -2.39,2.56 -3.11,3.11 c -0.23,0.24 -0.42,0.49 -0.67,0.72 -0.23,0.26 -0.53,0.46 -0.78,0.71 l -275.92,275.6 c 148.59,-148.57 -50.89,-385.44 -50.89,-385.44 l 0.03,0.02 -358.64,-358.65 c -60.32,-60.31 -60.32,-158.13 -0.01,-218.44 z" /></clipPath><linearGradient
       id="linearGradient94"
       spreadMethod="pad"
       gradientTransform="matrix(-1086.74,0,0,1086.74,3139.17,2444.37)"
       gradientUnits="userSpaceOnUse"
       y2="0"
       x2="1"
       y1="0"
       x1="0"><stop
         id="stop88"
         offset="0"
         style="stop-opacity:1;stop-color:#f28114" /><stop
         id="stop90"
         offset="0.990444"
         style="stop-opacity:1;stop-color:#a21554" /><stop
         id="stop92"
         offset="1"
         style="stop-opacity:1;stop-color:#a21554" /></linearGradient></defs><g
     transform="matrix(1.3333333,0,0,-1.3333333,0,666.66667)"
     id="g10"><g
       transform="scale(0.1)"
       id="g12"><path
         id="path24"
         style="fill:url(#radialGradient22);fill-opacity:1;fill-rule:nonzero;stroke:none"
         d="M 5000,0 H 0 V 5000 H 5000 V 0" /><g
         id="g26"><g
           clip-path="url(#clipPath32)"
           id="g28"><path
             id="path42"
             style="fill:url(#radialGradient40);fill-opacity:1;fill-rule:nonzero;stroke:none"
             d="m 2186.96,2562.16 c 60.32,-60.33 158.13,-60.33 218.46,0 v 0 c 60.32,60.3 60.32,158.12 0,218.43 l -467.76,467.77 c -60.33,60.32 -158.14,60.33 -218.46,0 v 0 c -60.32,-60.31 -60.31,-158.14 0.01,-218.46 l 276.69,-276.01 191.06,-191.73" /></g></g><g
         id="g44"><g
           clip-path="url(#clipPath50)"
           id="g46"><path
             id="path60"
             style="fill:url(#linearGradient58);fill-opacity:1;fill-rule:nonzero;stroke:none"
             d="m 2405.42,3716.4 c -60.33,60.33 -158.14,60.31 -218.46,0 L 1719.2,3248.63 c -59.07,-59.05 -62.76,-151.49 -6.16,-212.05 l 2.39,-2.55 3.11,-3.11 c 0.23,-0.23 0.43,-0.49 0.66,-0.72 0.25,-0.26 0.53,-0.46 0.78,-0.72 l 275.92,-275.59 c -148.57,148.57 50.9,385.43 50.9,385.43 l -0.04,-0.01 358.66,358.63 c 60.3,60.33 60.32,158.14 0,218.46" /></g></g><g
         id="g62"><g
           clip-path="url(#clipPath68)"
           id="g64"><path
             id="path78"
             style="fill:url(#linearGradient76);fill-opacity:1;fill-rule:nonzero;stroke:none"
             d="m 2785.08,3139.99 c -60.34,60.32 -158.14,60.32 -218.47,0 v 0 c -60.31,-60.32 -60.31,-158.13 0,-218.45 l 467.77,-467.77 c 60.33,-60.32 158.14,-60.33 218.44,0 v 0 c 60.34,60.32 60.32,158.13 0,218.47 l -276.7,276.01 -191.04,191.74" /></g></g><g
         id="g80"><g
           clip-path="url(#clipPath86)"
           id="g82"><path
             id="path96"
             style="fill:url(#linearGradient94);fill-opacity:1;fill-rule:nonzero;stroke:none"
             d="m 2566.61,1985.74 c 60.33,-60.32 158.13,-60.31 218.47,0 l 467.74,467.76 c 59.07,59.06 62.78,151.5 6.17,212.05 l -2.39,2.56 -3.11,3.11 c -0.23,0.24 -0.42,0.49 -0.67,0.72 -0.23,0.26 -0.53,0.46 -0.78,0.71 l -275.92,275.6 c 148.59,-148.57 -50.89,-385.44 -50.89,-385.44 l 0.03,0.02 -358.64,-358.65 c -60.32,-60.31 -60.32,-158.13 -0.01,-218.44" /></g></g><path
         id="path98"
         style="fill:#ffffff;fill-opacity:1;fill-rule:nonzero;stroke:none"
         d="m 2390.37,2047.32 c -24.66,-78.83 -108.53,-122.75 -187.38,-98.09 v 0 c -78.81,24.65 -122.73,108.55 -98.08,187.37 l 483.82,1520.8 c 24.67,78.83 108.57,122.76 187.4,98.1 v 0 c 78.81,-24.65 122.74,-108.56 98.09,-187.38 l -483.85,-1520.8" /><g
         transform="scale(10)"
         id="g100"><text
           id="text104"
           style="font-variant:normal;font-weight:bold;font-size:18.26519966px;font-family:Montserrat;-inkscape-font-specification:Montserrat-Bold;writing-mode:lr-tb;fill:#ffffff;fill-opacity:1;fill-rule:nonzero;stroke:none"
           transform="matrix(1,0,0,-1,169.608,156.249)"><tspan
             id="tspan102"
             y="0"
             x="0 17.662594 33.625996 50.594276 66.558189 80.439484 98.795479 114.86868 130.83257 147.70958">DEVELOPERS</tspan></text>
</g><g
         transform="scale(10)"
         id="g106"><text
           id="text110"
           style="font-variant:normal;font-weight:500;font-size:7.16752005px;font-family:Montserrat;-inkscape-font-specification:Montserrat-Medium;writing-mode:lr-tb;fill:#5fc8a5;fill-opacity:1;fill-rule:nonzero;stroke:none"
           transform="matrix(1,0,0,-1,204.823,144.509)"><tspan
             id="tspan108"
             y="0"
             x="0 14.141588 27.479984 40.582497 51.376427 65.331512 79.595238">DESIGNS</tspan></text>
</g></g></g></svg>